<?xml version="1.0" standalone="no"?>
<!DOCTYPE svg PUBLIC "-//W3C//DTD SVG 20010904//EN"
 "http://www.w3.org/TR/2001/REC-SVG-20010904/DTD/svg10.dtd">
<svg version="1.0" xmlns="http://www.w3.org/2000/svg"
 width="612.000000pt" height="323.000000pt" viewBox="0 0 612.000000 323.000000"
 preserveAspectRatio="xMidYMid meet">
<metadata>
Created by potrace 1.16, written by Peter Selinger 2001-2019
</metadata>
<g transform="translate(0.000000,323.000000) scale(0.100000,-0.100000)"
fill="#000000" stroke="none">
<path d="M3731 2643 c-27 -18 -27 -58 -1 -76 11 -8 88 -29 170 -48 l150 -34 0
-562 0 -562 -62 -37 c-97 -57 -240 -159 -270 -190 -86 -91 -62 -212 48 -243
26 -7 234 -11 634 -11 523 0 598 2 618 16 24 17 29 56 9 72 -9 8 -203 12 -631
14 -656 3 -641 2 -629 49 10 36 161 149 303 226 l55 30 530 42 c292 24 540 47
551 53 12 6 41 45 65 87 24 42 70 121 102 176 33 55 76 129 97 165 21 36 68
116 104 178 36 63 66 119 66 125 -1 43 20 42 -752 47 l-733 5 -3 191 c-2 142
-6 195 -15 203 -12 9 -81 27 -329 86 -48 11 -60 11 -77 -2z m593 -645 c-4 -35
-7 -64 -8 -65 0 -1 -37 -3 -81 -5 l-80 -3 -3 68 -3 67 91 0 91 0 -7 -62z m231
15 c-12 -88 -5 -83 -112 -83 l-96 0 7 38 c3 20 6 49 6 65 l0 27 101 0 100 0
-6 -47z m229 10 c-18 -94 -10 -88 -112 -91 -103 -3 -98 -8 -86 82 l7 46 99 0
99 0 -7 -37z m224 -23 l-20 -60 -95 0 c-94 0 -95 0 -89 23 3 12 9 39 12 60 l7
37 102 0 102 0 -19 -60z m227 4 c-14 -31 -25 -58 -25 -60 0 -2 -42 -4 -94 -4
l-95 0 21 60 20 60 99 0 99 0 -25 -56z m255 50 c0 -4 -12 -28 -26 -54 -17 -31
-34 -50 -49 -52 -46 -9 -165 -9 -165 0 0 5 10 32 21 61 l22 51 98 0 c55 0 99
-3 99 -6z m-520 -157 c0 -7 -9 -41 -21 -74 l-20 -62 -85 -3 c-95 -3 -91 -8
-70 82 l12 55 70 6 c38 3 79 6 92 7 12 1 22 -4 22 -11z m220 6 c0 -5 -12 -36
-26 -70 l-26 -61 -80 -7 c-43 -4 -82 -4 -85 -1 -5 5 22 115 34 139 2 4 44 7
94 7 49 0 89 -3 89 -7z m189 -50 c-18 -32 -39 -64 -47 -70 -9 -8 -45 -13 -85
-13 -79 0 -78 -1 -37 93 l21 47 90 0 89 0 -31 -57z m-854 -25 c-3 -40 -9 -75
-11 -77 -2 -3 -42 -7 -89 -9 l-85 -5 0 35 c0 20 3 56 6 82 l7 46 90 0 90 0 -8
-72z m225 40 c-5 -18 -14 -52 -20 -75 l-11 -43 -86 0 -86 0 7 53 c14 104 6 97
111 97 l93 0 -8 -32z m-434 6 c-3 -9 -6 -42 -6 -75 l0 -59 -80 0 -80 0 0 75 0
75 86 0 c74 0 85 -2 80 -16z m795 -167 c-5 -12 -18 -43 -30 -69 l-20 -48 -76
0 c-41 0 -75 4 -75 8 0 4 9 36 21 70 l21 61 76 3 c42 2 80 2 84 0 4 -1 3 -13
-1 -25z m196 26 c-2 -5 -21 -36 -41 -70 l-37 -63 -64 0 -64 0 15 35 c7 19 21
51 28 70 l15 35 76 0 c42 0 74 -3 72 -7z m-397 -16 c0 -7 -9 -41 -21 -75 l-21
-62 -77 0 -78 0 15 69 c17 78 13 76 130 79 37 2 52 -2 52 -11z m-204 -20 c-3
-12 -10 -46 -16 -75 l-12 -52 -79 0 -80 0 7 53 c13 97 12 97 105 97 79 0 81
-1 75 -23z m-406 -44 c0 -101 -2 -103 -81 -103 l-69 0 0 74 0 75 43 4 c23 2
57 4 75 5 l32 2 0 -57z m207 44 c-3 -8 -8 -39 -12 -71 -4 -31 -10 -58 -14 -60
-4 -3 -40 -6 -81 -7 l-73 -2 2 69 c1 37 5 72 7 76 3 4 44 8 91 8 67 0 84 -3
80 -13z m522 -186 l-21 -49 -70 -6 c-38 -4 -71 -6 -73 -4 -9 9 29 97 44 101 9
3 44 5 78 6 l62 1 -20 -49z m-188 -13 l-18 -53 -69 -6 c-38 -3 -71 -4 -73 -3
-2 2 2 25 9 53 13 55 16 57 117 60 l52 1 -18 -52z m-177 15 c-21 -83 -15 -77
-88 -86 -37 -5 -70 -6 -73 -3 -3 2 -2 27 2 55 8 56 9 57 113 60 l52 1 -6 -27z
m-189 -25 c-12 -78 -9 -76 -85 -80 l-70 -3 0 57 c0 57 0 57 33 61 17 2 54 5
80 5 l49 2 -7 -42z m-188 -24 c-3 -31 -7 -58 -9 -59 -2 -2 -31 -7 -66 -11
l-62 -7 0 61 c0 68 -1 67 99 71 l44 1 -6 -56z"/>
<path d="M2940 2375 c-131 -37 -230 -110 -306 -225 l-25 -38 17 -141 c15 -129
15 -165 -2 -149 -3 4 -20 128 -37 277 l-32 271 -155 0 -155 -1 -172 -302 c-95
-166 -173 -306 -173 -310 0 -4 17 -7 38 -7 61 0 67 -9 40 -68 l-23 -50 -23 25
c-18 20 -26 23 -35 14 -9 -9 -3 -20 26 -47 41 -39 47 -71 23 -127 -26 -61 -82
-88 -158 -73 -59 11 -61 17 -34 75 22 49 25 52 35 32 13 -24 51 -29 51 -6 0 8
-11 22 -25 31 -32 21 -39 51 -25 103 7 27 23 50 46 68 28 22 84 102 84 119 0
2 -58 4 -130 4 -71 0 -130 2 -130 4 0 2 25 113 55 246 30 133 55 248 55 256 0
11 -26 14 -135 14 -74 0 -135 -2 -135 -5 0 -3 -18 -85 -41 -183 -31 -136 -41
-200 -43 -277 -2 -101 -6 -115 -60 -215 -8 -14 -17 -40 -21 -57 l-7 -33 109 0
c99 -1 106 -2 83 -15 -19 -11 -67 -14 -197 -15 -95 0 -173 -2 -173 -5 0 -2
-31 -143 -69 -312 -38 -170 -73 -325 -76 -345 l-7 -38 120 0 c106 0 121 2 125
18 3 9 11 42 17 72 7 30 16 73 22 95 l10 40 33 -108 c18 -60 35 -110 38 -113
2 -2 65 -3 139 -2 l135 3 -57 138 -58 137 42 18 c38 17 85 62 112 108 27 45
24 -6 -10 -159 -36 -161 -36 -166 -20 -206 l16 -41 102 0 101 0 54 246 c30
135 59 247 63 250 4 3 8 0 8 -6 0 -13 -98 -456 -106 -479 -3 -11 30 -12 193
-9 218 5 268 16 355 76 122 84 189 197 196 330 4 79 5 82 29 82 14 0 21 4 18
10 -3 6 -15 10 -26 10 -11 0 -17 5 -14 10 6 9 75 15 75 6 0 -2 -11 -23 -24
-47 -14 -24 -32 -77 -40 -117 -21 -100 -67 -182 -141 -250 -34 -31 -70 -69
-80 -85 l-17 -27 135 0 136 0 20 45 20 46 93 -3 93 -3 3 -43 3 -42 134 0 134
0 -5 32 c-3 18 -22 175 -42 348 l-38 315 -99 5 -100 5 81 18 81 19 31 136 c16
76 29 138 28 140 -2 1 -27 -9 -57 -23 -144 -67 -246 -2 -210 132 35 130 197
186 288 101 26 -25 21 -35 58 125 15 65 25 124 22 131 -13 33 -188 47 -277 21z
m-712 -787 l-3 -163 -45 0 c-42 0 -45 2 -48 28 -3 23 -8 27 -36 27 -28 0 -36
-5 -46 -30 -11 -27 -16 -30 -61 -28 -60 1 -62 -13 32 183 l70 145 70 0 69 0
-2 -162z m192 153 c0 -5 -11 -57 -25 -115 -14 -58 -25 -108 -25 -111 0 -3 19
-5 41 -5 l41 0 -7 -37 c-4 -21 -9 -41 -12 -46 -6 -9 -183 -8 -183 2 0 3 16 77
37 164 l37 157 48 0 c26 0 48 -4 48 -9z m284 -28 c-8 -48 -7 -47 -51 -45 -33
1 -52 -10 -53 -30 0 -5 14 -8 30 -8 28 0 30 -2 24 -27 -11 -47 -23 -62 -44
-58 -12 2 -24 -4 -30 -16 -10 -17 -7 -19 30 -19 44 0 50 -13 30 -64 -9 -25
-12 -26 -95 -26 -78 0 -85 2 -85 20 0 18 36 182 61 273 l10 37 90 0 90 0 -7
-37z m-366 -380 c35 -22 45 -59 31 -116 -19 -81 -55 -112 -158 -132 l-33 -7 7
33 c4 19 18 83 32 142 l25 108 36 -7 c21 -3 47 -13 60 -21z"/>
<path d="M866 2353 c-3 -10 -21 -88 -40 -173 -107 -476 -126 -561 -126 -571 0
-15 452 -6 502 10 20 6 58 26 85 44 57 38 100 115 109 192 6 61 -18 107 -70
132 l-35 16 39 19 c73 36 122 145 106 233 -8 43 -56 91 -104 105 -20 5 -132
10 -249 10 -193 0 -212 -2 -217 -17z"/>
<path d="M3245 2348 c-64 -280 -165 -732 -165 -740 0 -5 60 -8 133 -8 l133 0
34 155 c18 85 37 152 41 148 3 -5 28 -71 54 -148 27 -77 51 -143 55 -148 4 -4
79 -6 167 -5 l161 3 -84 190 c-46 104 -84 192 -84 196 0 4 68 89 150 188 83
100 150 183 150 186 0 3 -69 5 -152 4 l-153 0 -114 -154 c-63 -85 -116 -153
-118 -151 -2 2 7 52 21 112 14 60 29 128 34 152 l10 42 -134 0 c-130 0 -134
-1 -139 -22z"/>
<path d="M686 1553 c-3 -10 -37 -160 -76 -333 -39 -173 -73 -323 -76 -333 -5
-16 4 -17 122 -15 l128 3 26 120 27 120 96 3 c80 2 97 5 101 20 6 20 36 151
36 158 0 2 -43 4 -96 4 l-96 0 7 33 c4 17 9 35 12 40 2 4 46 7 98 7 l93 0 21
89 c12 49 21 91 21 95 0 3 -99 6 -219 6 -201 0 -220 -2 -225 -17z"/>
<path d="M3132 1562 c2 -5 34 -92 72 -195 l69 -187 -35 -155 -35 -155 127 0
126 0 33 153 34 152 120 145 c66 80 141 169 165 198 l44 52 -141 0 -142 0 -58
-91 -59 -91 -11 51 c-6 28 -14 69 -17 91 l-7 40 -144 0 c-80 0 -143 -4 -141
-8z"/>
<path d="M3730 838 c-64 -35 -105 -96 -105 -159 0 -55 21 -84 70 -97 103 -28
240 92 221 193 -15 76 -105 106 -186 63z m108 -60 c42 -42 -29 -138 -101 -138
-56 0 -66 74 -16 121 34 31 94 40 117 17z"/>
<path d="M4750 845 c-75 -34 -120 -97 -120 -168 0 -95 96 -130 197 -71 83 48
118 157 70 217 -28 36 -94 45 -147 22z m100 -80 c18 -49 -29 -111 -93 -122
-30 -4 -37 -2 -52 21 -15 22 -16 31 -5 56 18 44 56 70 102 70 32 0 40 -4 48
-25z"/>
<path d="M526 813 c-3 -10 -12 -52 -21 -93 -9 -41 -18 -83 -21 -92 -5 -16 3
-18 69 -18 59 0 76 3 81 16 11 29 6 34 -29 34 -40 0 -39 -4 -20 75 22 90 21
95 -19 95 -24 0 -36 -5 -40 -17z"/>
<path d="M680 733 c-12 -54 -23 -104 -25 -110 -3 -9 8 -13 35 -13 l39 0 16 78
c9 42 21 92 25 110 8 32 8 32 -30 32 l-38 0 -22 -97z"/>
<path d="M815 818 c-2 -7 -11 -49 -20 -93 -9 -44 -19 -88 -22 -97 -4 -15 2
-18 36 -18 40 0 40 0 47 45 7 49 18 64 28 39 6 -15 8 -15 27 2 l21 19 -6 -35
c-4 -19 -10 -43 -12 -52 -5 -15 1 -18 34 -18 l40 0 16 72 c9 40 19 90 23 110
5 38 5 38 -28 38 -20 0 -42 -9 -57 -22 l-24 -23 -15 23 c-17 25 -80 32 -88 10z"/>
<path d="M1075 818 c-4 -15 -45 -198 -45 -204 0 -2 17 -4 38 -4 l39 0 21 103
c12 56 22 105 22 110 0 12 -70 8 -75 -5z"/>
<path d="M1177 813 c-18 -66 -18 -73 3 -73 16 0 19 -5 15 -22 -3 -13 -9 -42
-14 -65 l-9 -43 39 0 c42 0 40 -3 57 85 6 30 13 41 29 43 13 2 23 13 28 30 3
15 8 35 11 45 5 15 -3 17 -75 17 -67 0 -80 -3 -84 -17z"/>
<path d="M1342 728 c-12 -57 -22 -106 -22 -110 0 -5 34 -8 75 -8 73 0 75 1 75
25 0 21 -5 25 -30 25 -20 0 -30 5 -30 15 0 9 9 15 24 15 22 0 36 16 36 41 0 5
-9 9 -20 9 -14 0 -20 7 -20 21 0 18 4 20 29 14 23 -5 32 -2 40 14 20 37 13 41
-62 41 l-74 0 -21 -102z"/>
<path d="M1535 808 c-3 -13 -13 -62 -24 -110 l-19 -88 64 0 c56 0 67 3 97 30
46 40 63 99 42 144 -18 38 -37 46 -107 46 -41 0 -48 -3 -53 -22z"/>
<path d="M1836 803 c-4 -16 -9 -36 -12 -45 -4 -13 0 -18 16 -18 18 0 21 -4 16
-22 -3 -13 -9 -42 -12 -65 l-7 -43 36 0 c32 0 37 4 43 28 20 90 25 102 43 102
12 0 21 10 25 28 4 15 9 35 12 45 5 15 -3 17 -74 17 -79 0 -80 0 -86 -27z"/>
<path d="M2002 727 c-12 -57 -22 -107 -22 -110 0 -4 17 -7 38 -7 l38 0 18 92
c11 50 21 100 24 110 4 15 -2 18 -35 18 l-40 0 -21 -103z"/>
<path d="M2121 738 c-29 -126 -28 -128 14 -128 31 0 35 3 44 38 6 20 11 44 11
52 1 12 3 12 14 -3 12 -15 15 -15 26 -2 21 25 29 17 19 -17 -17 -60 -13 -70
28 -66 l36 3 17 75 c34 149 35 140 -9 140 -25 0 -44 -7 -56 -20 -10 -11 -22
-20 -26 -20 -4 0 -11 9 -14 20 -5 15 -15 20 -44 20 l-39 0 -21 -92z"/>
<path d="M2391 783 c-5 -27 -16 -76 -25 -110 l-14 -63 73 0 c57 0 74 3 79 16
11 29 6 34 -30 34 -42 0 -43 23 -2 28 18 2 27 10 31 28 3 20 0 24 -19 24 -15
0 -24 6 -24 15 0 10 11 15 35 15 29 0 37 5 45 26 6 14 10 27 10 30 0 2 -33 4
-74 4 l-74 0 -11 -47z"/>
<path d="M2716 800 c-65 -58 -73 -155 -15 -186 28 -14 33 -14 66 3 50 25 75
62 80 120 4 39 1 52 -17 71 -30 32 -72 29 -114 -8z"/>
<path d="M2886 743 c-11 -49 -21 -98 -24 -110 -4 -21 -1 -23 37 -23 37 0 41 2
41 25 0 14 4 25 9 25 5 0 12 -11 15 -25 5 -20 13 -25 39 -25 l33 0 18 88 c10
48 20 97 23 110 5 22 3 23 -32 20 -34 -3 -40 -7 -50 -38 l-12 -35 -12 38 c-10
31 -17 37 -40 37 -26 0 -28 -4 -45 -87z"/>
<path d="M3100 733 c-12 -54 -23 -104 -25 -110 -7 -21 141 -18 149 3 11 28 6
34 -28 34 l-34 0 14 68 c8 37 17 75 20 85 4 14 -1 17 -35 17 l-39 0 -22 -97z"/>
<path d="M3230 821 c0 -5 7 -28 16 -52 11 -31 14 -62 10 -102 l-6 -58 37 3
c35 3 37 5 49 51 7 30 31 72 59 108 l46 59 -37 0 c-30 0 -43 -6 -60 -27 l-22
-28 -11 28 c-9 22 -17 27 -46 27 -19 0 -35 -4 -35 -9z"/>
</g>
</svg>
